# xmcd
#
# Track frame offsets: 
#        150
#        19249
#        44875
#        61769
#        72572
#        95857
#        121421
#        144462
#        157678
#        171841
#        193849
#        224405
#        242466
#        259953
#        276973
#
# Disc length: 3971 seconds
#
# Revision: 0
# Processed by: cddbd v1.5.2PL0 Copyright (c) Steve Scherf et al.
# Submitted via: ExactAudioCopy v1.3
#
DISCID=e90f810f
DTITLE=Bobby BlackHat - Accidental Blues
DYEAR=2015
DGENRE=Blues
TTITLE0=Two By Four
TTITLE1=Blues Story
TTITLE2=Accidental Blues
TTITLE3=Happy Go Lucky Man
TTITLE4=Happy Go Lucky Man Remix
TTITLE5=It's Not a Good Idea Til It's Her Idea
TTITLE6=Come Home Blues
TTITLE7=My Cookin
TTITLE8=My World Did Not End
TTITLE9=Nursery Rhyme Shuffle
TTITLE10=Please Mr BlackHat
TTITLE11=Feather and Nails
TTITLE12=Broke My Body Down
TTITLE13=There Is No Sin In the Voice of God
TTITLE14=HRBT Blues
EXTD=
EXTT0=
EXTT1=
EXTT2=
EXTT3=
EXTT4=
EXTT5=
EXTT6=
EXTT7=
EXTT8=
EXTT9=
EXTT10=
EXTT11=
EXTT12=
EXTT13=
EXTT14=
PLAYORDER=
